<svg width="36" height="36" viewBox="0 0 36 36" fill="none" xmlns="http://www.w3.org/2000/svg">
<path fill-rule="evenodd" clip-rule="evenodd" d="M16.7649 9.95723V13.1375C16.7649 13.3521 16.7213 13.5694 16.6323 13.7711C15.2196 16.9712 13.136 18.5402 11.1371 18.8972C11.0882 18.906 11.0485 18.9308 11.0264 18.9547C11.0164 18.9656 11.0128 18.9732 11.0119 18.9754L11.0116 24.1122C11.0116 24.1122 11.0134 24.1145 11.0153 24.1164C11.0234 24.1239 11.035 24.1287 11.0486 24.1279C12.6857 24.0288 13.7474 24.2042 14.5612 24.4811C14.9617 24.6174 15.2857 24.773 15.5583 24.9072C15.5822 24.9189 15.6055 24.9304 15.6282 24.9416C15.8748 25.0632 16.0587 25.1539 16.2557 25.2237C16.3666 25.263 16.7011 25.3123 17.2836 25.339C17.8291 25.3639 18.5032 25.3667 19.2226 25.3549C20.6597 25.3313 22.2404 25.2504 23.2559 25.1829L23.2802 25.1813H23.3046C23.4164 25.1813 23.4863 25.1671 23.5262 25.1545C23.5636 25.1426 23.5766 25.1315 23.5786 25.1299C23.5806 25.1282 23.5861 25.1234 23.5946 25.1071C23.6041 25.0888 23.6177 25.0549 23.629 24.9984C23.6849 24.7201 23.6243 24.3156 23.5385 23.838C23.4446 23.3154 23.7093 22.861 24.061 22.6279C24.6738 22.2218 24.6897 21.73 24.6358 21.5639C24.536 21.2567 24.5004 20.8009 24.7595 20.3945C25.015 19.9934 25.0077 19.7366 24.9692 19.5783C24.9223 19.3856 24.7916 19.1951 24.6055 19.0129C24.1865 18.6027 24.1371 17.9763 24.3815 17.5085C24.4853 17.3098 24.4849 17.1807 24.4698 17.099C24.4522 17.0043 24.399 16.8958 24.2956 16.7799C24.1916 16.6634 24.0588 16.5649 23.936 16.4973C23.8782 16.4655 23.8314 16.4454 23.8012 16.4346H19.6447V13.7177C19.6447 11.3303 19.094 10.4448 18.641 10.1117C18.1753 9.76913 17.5268 9.78658 16.7649 9.95723ZM19.5205 8.84921C20.5845 9.6316 21.1558 11.1822 21.1558 13.7177V14.8821H23.8559C24.0206 14.8821 24.1741 14.9254 24.2801 14.9621C24.4001 15.0037 24.5256 15.0606 24.6494 15.1287C24.8948 15.2637 25.1712 15.4637 25.4096 15.731C25.6486 15.9989 25.8709 16.3594 25.9542 16.8084C26.0285 17.2094 25.9824 17.6307 25.8037 18.0511C26.0519 18.3265 26.3153 18.7094 26.4351 19.2017C26.5813 19.8023 26.4891 20.4615 26.0892 21.1381C26.3387 22.0079 26.0041 23.0795 25.0675 23.7988C25.1375 24.2101 25.2133 24.7922 25.109 25.312C25.0402 25.6548 24.8823 26.0359 24.5434 26.3247C24.2095 26.6093 23.7881 26.7293 23.3309 26.7337C22.2979 26.802 20.7043 26.8833 19.2467 26.9072C18.5134 26.9192 17.8052 26.9169 17.2164 26.89C16.6646 26.8647 16.1128 26.8154 15.7629 26.6913C15.4784 26.5905 15.2148 26.4602 14.9822 26.3451C14.9562 26.3323 14.9306 26.3197 14.9055 26.3073C14.6446 26.1789 14.3915 26.0589 14.0861 25.9549C13.4882 25.7514 12.6232 25.5878 11.1375 25.6777C10.2823 25.7294 9.50049 25.0461 9.50049 24.1127V18.9763C9.50049 18.0937 10.1838 17.4917 10.8782 17.3677C12.2745 17.1183 13.9973 15.9779 15.2538 13.1351V9.94921C15.2538 9.25391 15.7103 8.60702 16.4134 8.44702C17.2202 8.26344 18.4745 8.07992 19.5205 8.84921Z" fill="white"/>
</svg>
