<svg width="28" height="28" viewBox="0 0 28 28" fill="none" xmlns="http://www.w3.org/2000/svg">
<rect y="0.0957031" width="27.8086" height="27.8086" rx="3.47608" fill="#F50723"/>
<path d="M7.72662 12.7029H6.16846V7.39752H4.05588V6.04967H9.8392V7.39752H7.72662V12.7029ZM13.2701 12.8558C12.773 12.8558 12.3142 12.7698 11.9032 12.5977C11.4826 12.4257 11.1193 12.1867 10.823 11.8712C10.5171 11.5558 10.2781 11.1925 10.1156 10.7624C9.94352 10.3418 9.85748 9.88291 9.85748 9.37627C9.85748 8.86964 9.94352 8.41079 10.1156 7.98063C10.2781 7.56002 10.5171 7.19677 10.823 6.88132C11.1193 6.56587 11.4826 6.32689 11.9032 6.15482C12.3142 5.98275 12.773 5.89672 13.2701 5.89672C13.7768 5.89672 14.2356 5.98275 14.6562 6.15482C15.0673 6.32689 15.4305 6.56587 15.7364 6.88132C16.0423 7.19677 16.2813 7.56002 16.4533 7.98063C16.6158 8.41079 16.7019 8.86964 16.7019 9.37627C16.7019 9.88291 16.6158 10.3418 16.4533 10.7624C16.2813 11.1925 16.0423 11.5558 15.7364 11.8712C15.4305 12.1867 15.0673 12.4257 14.6562 12.5977C14.2356 12.7698 13.7768 12.8558 13.2701 12.8558ZM13.2701 11.4793C13.6334 11.4793 13.9584 11.3933 14.2356 11.2116C14.5128 11.0396 14.7231 10.791 14.8856 10.4756C15.0481 10.1601 15.1246 9.79688 15.1246 9.37627C15.1246 8.95567 15.0481 8.58286 14.8856 8.26741C14.7231 7.95195 14.5128 7.71297 14.2356 7.53135C13.9584 7.35928 13.6334 7.27325 13.2701 7.27325C12.9164 7.27325 12.601 7.35928 12.3238 7.53135C12.0465 7.71297 11.8267 7.95195 11.6737 8.26741C11.5112 8.58286 11.4348 8.95567 11.4348 9.37627C11.4348 9.79688 11.5112 10.1601 11.6737 10.4756C11.8267 10.791 12.0465 11.0396 12.3238 11.2116C12.601 11.3933 12.9164 11.4793 13.2701 11.4793ZM17.3004 12.7029V6.04967H20.0534C20.5983 6.04967 21.0763 6.14526 21.4682 6.33645C21.8601 6.52763 22.166 6.79529 22.3763 7.13942C22.5866 7.48355 22.6918 7.88504 22.6918 8.34388C22.6918 8.80272 22.5866 9.20421 22.3763 9.54834C22.166 9.90203 21.8601 10.1697 21.4682 10.3609C21.0763 10.5521 20.5983 10.6477 20.0534 10.6477H18.8585V12.7029H17.3004ZM18.8585 9.32848H19.824C20.2733 9.32848 20.5983 9.24245 20.8086 9.07038C21.0093 8.90787 21.1145 8.65933 21.1145 8.34388C21.1145 8.02843 21.0093 7.78945 20.8086 7.61738C20.5983 7.45487 20.2733 7.36884 19.824 7.36884H18.8585V9.32848Z" fill="white"/>
<path d="M9.40302 22.7859V15.3749L7.19223 15.9867V14.0818L11.5999 12.9277V22.7859H9.40302ZM17.5343 22.9945C16.7418 22.9945 16.0466 22.7859 15.4487 22.3688C14.8508 21.9655 14.378 21.3816 14.0582 20.6168C13.7384 19.866 13.5716 18.9761 13.5716 17.9472C13.5716 16.9322 13.7384 16.0423 14.0582 15.2776C14.378 14.5128 14.8508 13.9288 15.4487 13.5117C16.0466 13.1085 16.7418 12.8999 17.5343 12.8999C18.3269 12.8999 19.036 13.1085 19.6339 13.5117C20.2318 13.9288 20.6906 14.5128 21.0104 15.2776C21.3302 16.0423 21.497 16.9322 21.497 17.9472C21.497 18.9761 21.3302 19.866 21.0104 20.6168C20.6906 21.3816 20.2318 21.9655 19.6339 22.3688C19.036 22.7859 18.3269 22.9945 17.5343 22.9945ZM17.5343 21.0479C18.0766 21.0479 18.4937 20.7698 18.7996 20.2275C19.1055 19.6852 19.2585 18.9344 19.2585 17.9472C19.2585 16.96 19.1055 16.1952 18.7996 15.653C18.4937 15.1107 18.0766 14.8465 17.5343 14.8465C16.9921 14.8465 16.5749 15.1107 16.269 15.653C15.9631 16.1952 15.8102 16.96 15.8102 17.9472C15.8102 18.9344 15.9631 19.6852 16.269 20.2275C16.5749 20.7698 16.9921 21.0479 17.5343 21.0479Z" fill="white"/>
</svg>
