<svg width="28" height="28" viewBox="0 0 28 28" fill="none" xmlns="http://www.w3.org/2000/svg">
<rect width="27.8086" height="27.8086" rx="3.47608" fill="#F50723"/>
<path d="M7.72662 12.6072H6.16846V7.30182H4.05588V5.95397H9.8392V7.30182H7.72662V12.6072ZM13.2701 12.7601C12.773 12.7601 12.3142 12.6741 11.9032 12.502C11.4826 12.33 11.1193 12.091 10.823 11.7755C10.5171 11.4601 10.2781 11.0968 10.1156 10.6667C9.94352 10.2461 9.85748 9.78721 9.85748 9.28057C9.85748 8.77393 9.94352 8.31509 10.1156 7.88493C10.2781 7.46432 10.5171 7.10107 10.823 6.78562C11.1193 6.47016 11.4826 6.23118 11.9032 6.05912C12.3142 5.88705 12.773 5.80102 13.2701 5.80102C13.7768 5.80102 14.2356 5.88705 14.6562 6.05912C15.0673 6.23118 15.4305 6.47016 15.7364 6.78562C16.0423 7.10107 16.2813 7.46432 16.4533 7.88493C16.6158 8.31509 16.7019 8.77393 16.7019 9.28057C16.7019 9.78721 16.6158 10.2461 16.4533 10.6667C16.2813 11.0968 16.0423 11.4601 15.7364 11.7755C15.4305 12.091 15.0673 12.33 14.6562 12.502C14.2356 12.6741 13.7768 12.7601 13.2701 12.7601ZM13.2701 11.3836C13.6334 11.3836 13.9584 11.2976 14.2356 11.1159C14.5128 10.9439 14.7231 10.6953 14.8856 10.3799C15.0481 10.0644 15.1246 9.70118 15.1246 9.28057C15.1246 8.85997 15.0481 8.48716 14.8856 8.1717C14.7231 7.85625 14.5128 7.61727 14.2356 7.43564C13.9584 7.26358 13.6334 7.17755 13.2701 7.17755C12.9164 7.17755 12.601 7.26358 12.3238 7.43564C12.0465 7.61727 11.8267 7.85625 11.6737 8.1717C11.5112 8.48716 11.4348 8.85997 11.4348 9.28057C11.4348 9.70118 11.5112 10.0644 11.6737 10.3799C11.8267 10.6953 12.0465 10.9439 12.3238 11.1159C12.601 11.2976 12.9164 11.3836 13.2701 11.3836ZM17.3004 12.6072V5.95397H20.0534C20.5983 5.95397 21.0763 6.04956 21.4682 6.24074C21.8601 6.43193 22.166 6.69958 22.3763 7.04372C22.5866 7.38785 22.6918 7.78933 22.6918 8.24818C22.6918 8.70702 22.5866 9.10851 22.3763 9.45264C22.166 9.80633 21.8601 10.074 21.4682 10.2652C21.0763 10.4564 20.5983 10.5519 20.0534 10.5519H18.8585V12.6072H17.3004ZM18.8585 9.23278H19.824C20.2733 9.23278 20.5983 9.14674 20.8086 8.97468C21.0093 8.81217 21.1145 8.56363 21.1145 8.24818C21.1145 7.93272 21.0093 7.69374 20.8086 7.52168C20.5983 7.35917 20.2733 7.27314 19.824 7.27314H18.8585V9.23278Z" fill="white"/>
<path d="M9.40302 22.6902V15.2792L7.19223 15.891V13.9861L11.5999 12.832V22.6902H9.40302ZM17.5343 22.8988C16.7418 22.8988 16.0466 22.6902 15.4487 22.2731C14.8508 21.8698 14.378 21.2859 14.0582 20.5211C13.7384 19.7703 13.5716 18.8804 13.5716 17.8515C13.5716 16.8365 13.7384 15.9466 14.0582 15.1819C14.378 14.4171 14.8508 13.8331 15.4487 13.416C16.0466 13.0128 16.7418 12.8042 17.5343 12.8042C18.3269 12.8042 19.036 13.0128 19.6339 13.416C20.2318 13.8331 20.6906 14.4171 21.0104 15.1819C21.3302 15.9466 21.497 16.8365 21.497 17.8515C21.497 18.8804 21.3302 19.7703 21.0104 20.5211C20.6906 21.2859 20.2318 21.8698 19.6339 22.2731C19.036 22.6902 18.3269 22.8988 17.5343 22.8988ZM17.5343 20.9521C18.0766 20.9521 18.4937 20.6741 18.7996 20.1318C19.1055 19.5895 19.2585 18.8387 19.2585 17.8515C19.2585 16.8643 19.1055 16.0995 18.7996 15.5573C18.4937 15.015 18.0766 14.7508 17.5343 14.7508C16.9921 14.7508 16.5749 15.015 16.269 15.5573C15.9631 16.0995 15.8102 16.8643 15.8102 17.8515C15.8102 18.8387 15.9631 19.5895 16.269 20.1318C16.5749 20.6741 16.9921 20.9521 17.5343 20.9521Z" fill="white"/>
</svg>
