<svg width="70" height="18" viewBox="0 0 70 18" fill="none" xmlns="http://www.w3.org/2000/svg">
<path d="M0 2.80859C0 1.70402 0.895431 0.808594 2 0.808594H68C69.1046 0.808594 70 1.70402 70 2.80859V17.8086H0V2.80859Z" fill="#F50723"/>
<path d="M6.79 12.8086V5.84859H8.11L11.56 10.7286V5.84859H12.88V12.8086H11.56L8.11 7.92859V12.8086H6.79ZM16.596 12.9586C16.066 12.9586 15.606 12.8486 15.226 12.6186C14.836 12.3986 14.546 12.0786 14.336 11.6686C14.126 11.2586 14.026 10.7686 14.026 10.1986C14.026 9.68859 14.126 9.21859 14.336 8.80859C14.536 8.39859 14.826 8.07859 15.206 7.83859C15.586 7.60859 16.036 7.48859 16.566 7.48859C17.326 7.48859 17.906 7.72859 18.316 8.21859C18.726 8.70859 18.926 9.35859 18.926 10.1686V10.6286H15.306C15.416 11.4886 15.846 11.9186 16.606 11.9186C16.856 11.9186 17.056 11.8786 17.226 11.7986C17.386 11.7186 17.496 11.6186 17.556 11.4886H18.836C18.706 11.9386 18.446 12.2986 18.056 12.5586C17.656 12.8286 17.166 12.9586 16.596 12.9586ZM16.556 8.52859C16.206 8.52859 15.926 8.62859 15.716 8.82859C15.506 9.03859 15.366 9.32859 15.306 9.70859H17.686C17.676 9.35859 17.576 9.06859 17.386 8.84859C17.196 8.63859 16.916 8.52859 16.556 8.52859ZM21.0905 12.8086L19.4405 7.63859H20.7505L21.7105 10.9886L22.6405 7.64859H23.7805L24.7505 10.9986L25.7105 7.63859H26.9805L25.3305 12.8086H24.2205L23.2005 9.30859L22.2005 12.8086H21.0905ZM32.6291 12.9686C31.8191 12.9686 31.1591 12.7786 30.6491 12.4086C30.1391 12.0386 29.7991 11.5186 29.6491 10.8486H31.0091C31.0991 11.1286 31.2791 11.3486 31.5691 11.5186C31.8491 11.6886 32.1991 11.7786 32.6091 11.7786C32.9991 11.7786 33.3291 11.6986 33.5891 11.5486C33.8391 11.3986 33.9691 11.1886 33.9691 10.8986C33.9691 10.7286 33.9291 10.5886 33.8591 10.4586C33.7891 10.3386 33.6491 10.2286 33.4491 10.1386C33.2491 10.0486 32.9591 9.97859 32.5791 9.91859L31.7991 9.78859C31.1491 9.67859 30.6691 9.47859 30.3491 9.16859C30.0191 8.85859 29.8591 8.41859 29.8591 7.84859C29.8591 7.40859 29.9791 7.02859 30.2191 6.69859C30.4491 6.37859 30.7691 6.12859 31.1791 5.94859C31.5791 5.77859 32.0291 5.68859 32.5291 5.68859C33.2591 5.68859 33.8691 5.85859 34.3591 6.19859C34.8491 6.54859 35.1591 7.04859 35.2691 7.70859H33.9091C33.8391 7.42859 33.6891 7.21859 33.4491 7.07859C33.2091 6.94859 32.9091 6.87859 32.5391 6.87859C32.1291 6.87859 31.8091 6.94859 31.5791 7.09859C31.3491 7.24859 31.2291 7.45859 31.2291 7.72859C31.2291 7.96859 31.3191 8.15859 31.4991 8.28859C31.6691 8.41859 32.0191 8.52859 32.5491 8.61859L33.2991 8.73859C34.6691 8.95859 35.3491 9.63859 35.3491 10.7686C35.3491 11.2386 35.2291 11.6286 34.9991 11.9586C34.7691 12.2886 34.4491 12.5386 34.0391 12.7086C33.6291 12.8886 33.1591 12.9686 32.6291 12.9686ZM38.6859 12.9586C38.1559 12.9586 37.6959 12.8486 37.3159 12.6186C36.9259 12.3986 36.6359 12.0786 36.4259 11.6686C36.2159 11.2586 36.1159 10.7686 36.1159 10.1986C36.1159 9.68859 36.2159 9.21859 36.4259 8.80859C36.6259 8.39859 36.9159 8.07859 37.2959 7.83859C37.6759 7.60859 38.1259 7.48859 38.6559 7.48859C39.4159 7.48859 39.9959 7.72859 40.4059 8.21859C40.8159 8.70859 41.0159 9.35859 41.0159 10.1686V10.6286H37.3959C37.5059 11.4886 37.9359 11.9186 38.6959 11.9186C38.9459 11.9186 39.1459 11.8786 39.3159 11.7986C39.4759 11.7186 39.5859 11.6186 39.6459 11.4886H40.9259C40.7959 11.9386 40.5359 12.2986 40.1459 12.5586C39.7459 12.8286 39.2559 12.9586 38.6859 12.9586ZM38.6459 8.52859C38.2959 8.52859 38.0159 8.62859 37.8059 8.82859C37.5959 9.03859 37.4559 9.32859 37.3959 9.70859H39.7759C39.7659 9.35859 39.6659 9.06859 39.4759 8.84859C39.2859 8.63859 39.0059 8.52859 38.6459 8.52859ZM43.5004 12.9586C42.9604 12.9586 42.5304 12.8086 42.2104 12.5086C41.8804 12.2186 41.7204 11.8186 41.7204 11.3286C41.7204 10.7986 41.9104 10.3786 42.3004 10.0786C42.6904 9.77859 43.2304 9.62859 43.9204 9.62859H44.9704V9.43859C44.9704 9.11859 44.8804 8.88859 44.7104 8.73859C44.5404 8.59859 44.3004 8.52859 44.0104 8.52859C43.7604 8.52859 43.5504 8.57859 43.3904 8.67859C43.2304 8.77859 43.1304 8.89859 43.0904 9.02859H41.8704C41.9604 8.58859 42.1904 8.21859 42.5704 7.92859C42.9504 7.63859 43.4404 7.48859 44.0504 7.48859C44.7204 7.48859 45.2504 7.65859 45.6404 7.98859C46.0304 8.32859 46.2204 8.85859 46.2204 9.56859V12.8086H45.0504V12.1686C44.8804 12.4386 44.6604 12.6386 44.3804 12.7686C44.0904 12.8986 43.8004 12.9586 43.5004 12.9586ZM43.8204 11.9386C44.0004 11.9386 44.1804 11.8986 44.3604 11.8186C44.5304 11.7386 44.6804 11.6186 44.8004 11.4586C44.9104 11.3086 44.9704 11.1086 44.9704 10.8686V10.5386H43.9804C43.6504 10.5386 43.4004 10.5986 43.2304 10.7186C43.0504 10.8486 42.9604 11.0186 42.9604 11.2486C42.9604 11.4786 43.0404 11.6486 43.2004 11.7586C43.3604 11.8786 43.5704 11.9386 43.8204 11.9386ZM49.4398 12.9586C48.7998 12.9586 48.2798 12.8086 47.8798 12.5086C47.4698 12.2186 47.2398 11.8286 47.1698 11.3486H48.3898C48.4198 11.4986 48.5298 11.6386 48.7198 11.7486C48.9098 11.8586 49.1398 11.9186 49.4098 11.9186C49.6798 11.9186 49.8898 11.8686 50.0498 11.7586C50.1998 11.6586 50.2798 11.5186 50.2798 11.3486C50.2798 11.1986 50.2198 11.0786 50.0998 10.9786C49.9798 10.8786 49.7698 10.8086 49.4698 10.7686L48.7198 10.6686C48.2298 10.5986 47.8598 10.4386 47.6198 10.1786C47.3798 9.92859 47.2598 9.58859 47.2598 9.17859C47.2598 8.83859 47.3498 8.53859 47.5298 8.28859C47.7098 8.03859 47.9598 7.83859 48.2698 7.69859C48.5798 7.55859 48.9398 7.48859 49.3298 7.48859C49.7398 7.48859 50.0898 7.55859 50.3898 7.69859C50.6898 7.83859 50.9298 8.02859 51.1098 8.25859C51.2898 8.49859 51.3998 8.75859 51.4498 9.03859H50.2398C50.1898 8.87859 50.0898 8.74859 49.9398 8.65859C49.7798 8.56859 49.5798 8.52859 49.3498 8.52859C49.0998 8.52859 48.8898 8.57859 48.7398 8.68859C48.5898 8.79859 48.5098 8.93859 48.5098 9.10859C48.5098 9.25859 48.5698 9.36859 48.6898 9.43859C48.8098 9.51859 49.0098 9.57859 49.2898 9.61859L50.0298 9.71859C50.5298 9.78859 50.9098 9.96859 51.1598 10.2586C51.4098 10.5486 51.5398 10.8886 51.5398 11.2986C51.5398 11.6386 51.4498 11.9286 51.2698 12.1786C51.0798 12.4286 50.8298 12.6186 50.5198 12.7486C50.1998 12.8886 49.8398 12.9586 49.4398 12.9586ZM54.8191 12.9586C54.3091 12.9586 53.8691 12.8386 53.4791 12.6086C53.0891 12.3786 52.7791 12.0486 52.5591 11.6386C52.3391 11.2286 52.2291 10.7586 52.2291 10.2186C52.2291 9.67859 52.3391 9.19859 52.5591 8.78859C52.7791 8.37859 53.0891 8.05859 53.4791 7.82859C53.8691 7.59859 54.3091 7.48859 54.8191 7.48859C55.3291 7.48859 55.7791 7.59859 56.1691 7.82859C56.5591 8.05859 56.8591 8.37859 57.0791 8.78859C57.2991 9.19859 57.4091 9.67859 57.4091 10.2186C57.4091 10.7586 57.2991 11.2286 57.0791 11.6386C56.8591 12.0486 56.5591 12.3786 56.1691 12.6086C55.7791 12.8386 55.3291 12.9586 54.8191 12.9586ZM54.8191 11.8286C55.2091 11.8286 55.5191 11.6786 55.7591 11.3886C55.9991 11.0986 56.1191 10.7086 56.1191 10.2186C56.1191 9.72859 55.9991 9.33859 55.7591 9.04859C55.5191 8.75859 55.2091 8.61859 54.8191 8.61859C54.4291 8.61859 54.1191 8.75859 53.8791 9.04859C53.6391 9.33859 53.5191 9.72859 53.5191 10.2186C53.5191 10.7086 53.6391 11.0986 53.8791 11.3886C54.1191 11.6786 54.4291 11.8286 54.8191 11.8286ZM59.6976 9.76859V12.8086H58.4276V7.63859H59.6476V8.24859C60.0176 7.73859 60.5376 7.48859 61.2076 7.48859C61.7676 7.48859 62.2076 7.67859 62.5376 8.06859C62.8676 8.45859 63.0276 8.96859 63.0276 9.59859V12.8086H61.7576V9.78859C61.7576 9.43859 61.6776 9.14859 61.5176 8.93859C61.3476 8.72859 61.0976 8.62859 60.7676 8.62859C60.4676 8.62859 60.2176 8.72859 60.0076 8.92859C59.7976 9.13859 59.6976 9.41859 59.6976 9.76859Z" fill="white"/>
</svg>
