<svg width="20" height="30" viewBox="0 0 20 30" fill="none" xmlns="http://www.w3.org/2000/svg">
<g clip-path="url(#clip0_106_3779)">
<path d="M0 0.808594H20V29.8086L0 25.8086V0.808594Z" fill="#F50723"/>
<path d="M5.43422 10.8086H4.13022V6.36859H2.36222V5.24059H7.20222V6.36859H5.43422V10.8086ZM9.93716 10.9366C9.52116 10.9366 9.13716 10.8646 8.79316 10.7206C8.44116 10.5766 8.13716 10.3766 7.88916 10.1126C7.63316 9.84859 7.43316 9.54459 7.29716 9.18459C7.15316 8.83259 7.08116 8.44859 7.08116 8.02459C7.08116 7.60059 7.15316 7.21659 7.29716 6.85659C7.43316 6.50459 7.63316 6.20059 7.88916 5.93659C8.13716 5.67259 8.44116 5.47259 8.79316 5.32859C9.13716 5.18459 9.52116 5.11259 9.93716 5.11259C10.3612 5.11259 10.7452 5.18459 11.0972 5.32859C11.4412 5.47259 11.7452 5.67259 12.0012 5.93659C12.2572 6.20059 12.4572 6.50459 12.6012 6.85659C12.7372 7.21659 12.8092 7.60059 12.8092 8.02459C12.8092 8.44859 12.7372 8.83259 12.6012 9.18459C12.4572 9.54459 12.2572 9.84859 12.0012 10.1126C11.7452 10.3766 11.4412 10.5766 11.0972 10.7206C10.7452 10.8646 10.3612 10.9366 9.93716 10.9366ZM9.93716 9.78459C10.2412 9.78459 10.5132 9.71259 10.7452 9.56059C10.9772 9.41659 11.1532 9.20859 11.2892 8.94459C11.4252 8.68059 11.4892 8.37659 11.4892 8.02459C11.4892 7.67259 11.4252 7.36059 11.2892 7.09659C11.1532 6.83259 10.9772 6.63259 10.7452 6.48059C10.5132 6.33659 10.2412 6.26459 9.93716 6.26459C9.64116 6.26459 9.37716 6.33659 9.14516 6.48059C8.91316 6.63259 8.72916 6.83259 8.60116 7.09659C8.46516 7.36059 8.40116 7.67259 8.40116 8.02459C8.40116 8.37659 8.46516 8.68059 8.60116 8.94459C8.72916 9.20859 8.91316 9.41659 9.14516 9.56059C9.37716 9.71259 9.64116 9.78459 9.93716 9.78459ZM13.1737 10.8086V5.24059H15.4777C15.9337 5.24059 16.3337 5.32059 16.6617 5.48059C16.9897 5.64059 17.2457 5.86459 17.4217 6.15259C17.5977 6.44059 17.6857 6.77659 17.6857 7.16059C17.6857 7.54459 17.5977 7.88059 17.4217 8.16859C17.2457 8.46459 16.9897 8.68859 16.6617 8.84859C16.3337 9.00859 15.9337 9.08859 15.4777 9.08859H14.4777V10.8086H13.1737ZM14.4777 7.98459H15.2857C15.6617 7.98459 15.9337 7.91259 16.1097 7.76859C16.2777 7.63259 16.3657 7.42459 16.3657 7.16059C16.3657 6.89659 16.2777 6.69659 16.1097 6.55259C15.9337 6.41659 15.6617 6.34459 15.2857 6.34459H14.4777V7.98459Z" fill="white"/>
<path d="M5.56304 20.8086V13.8796L3.49604 14.4516V12.6706L7.61704 11.5916V20.8086H5.56304ZM12.978 21.0036C12.237 21.0036 11.587 20.8086 11.028 20.4186C10.469 20.0416 10.027 19.4956 9.728 18.7806C9.429 18.0786 9.273 17.2466 9.273 16.2846C9.273 15.3356 9.429 14.5036 9.728 13.7886C10.027 13.0736 10.469 12.5276 11.028 12.1376C11.587 11.7606 12.237 11.5656 12.978 11.5656C13.719 11.5656 14.382 11.7606 14.941 12.1376C15.5 12.5276 15.929 13.0736 16.228 13.7886C16.527 14.5036 16.683 15.3356 16.683 16.2846C16.683 17.2466 16.527 18.0786 16.228 18.7806C15.929 19.4956 15.5 20.0416 14.941 20.4186C14.382 20.8086 13.719 21.0036 12.978 21.0036ZM12.978 19.1836C13.485 19.1836 13.875 18.9236 14.161 18.4166C14.447 17.9096 14.59 17.2076 14.59 16.2846C14.59 15.3616 14.447 14.6466 14.161 14.1396C13.875 13.6326 13.485 13.3856 12.978 13.3856C12.471 13.3856 12.081 13.6326 11.795 14.1396C11.509 14.6466 11.366 15.3616 11.366 16.2846C11.366 17.2076 11.509 17.9096 11.795 18.4166C12.081 18.9236 12.471 19.1836 12.978 19.1836Z" fill="white"/>
</g>
<defs>
<clipPath id="clip0_106_3779">
<path d="M0 0.808594H18C19.1046 0.808594 20 1.70402 20 2.80859V29.8086H0V0.808594Z" fill="white"/>
</clipPath>
</defs>
</svg>
