<svg width="85" height="18" viewBox="0 0 85 18" fill="none" xmlns="http://www.w3.org/2000/svg">
<path d="M0 2.80859C0 1.70402 0.895431 0.808594 2 0.808594H83C84.1046 0.808594 85 1.70402 85 2.80859V17.8086H0V2.80859Z" fill="#F50723"/>
<path d="M6.79 12.8086V5.84859H9.63C10.48 5.84859 11.15 6.04859 11.63 6.45859C12.1 6.86859 12.34 7.41859 12.34 8.10859C12.34 8.60859 12.21 9.03859 11.96 9.38859C11.7 9.73859 11.36 10.0086 10.93 10.1786L12.65 12.8086H11.07L9.54 10.3986H8.15V12.8086H6.79ZM8.15 9.21859H9.45C9.97 9.21859 10.35 9.11859 10.6 8.92859C10.84 8.73859 10.96 8.46859 10.96 8.09859C10.96 7.72859 10.84 7.45859 10.6 7.28859C10.35 7.11859 9.97 7.02859 9.45 7.02859H8.15V9.21859ZM15.5804 12.9586C15.0504 12.9586 14.5904 12.8486 14.2104 12.6186C13.8204 12.3986 13.5304 12.0786 13.3204 11.6686C13.1104 11.2586 13.0104 10.7686 13.0104 10.1986C13.0104 9.68859 13.1104 9.21859 13.3204 8.80859C13.5204 8.39859 13.8104 8.07859 14.1904 7.83859C14.5704 7.60859 15.0204 7.48859 15.5504 7.48859C16.3104 7.48859 16.8904 7.72859 17.3004 8.21859C17.7104 8.70859 17.9104 9.35859 17.9104 10.1686V10.6286H14.2904C14.4004 11.4886 14.8304 11.9186 15.5904 11.9186C15.8404 11.9186 16.0404 11.8786 16.2104 11.7986C16.3704 11.7186 16.4804 11.6186 16.5404 11.4886H17.8204C17.6904 11.9386 17.4304 12.2986 17.0404 12.5586C16.6404 12.8286 16.1504 12.9586 15.5804 12.9586ZM15.5404 8.52859C15.1904 8.52859 14.9104 8.62859 14.7004 8.82859C14.4904 9.03859 14.3504 9.32859 14.2904 9.70859H16.6704C16.6604 9.35859 16.5604 9.06859 16.3704 8.84859C16.1804 8.63859 15.9004 8.52859 15.5404 8.52859ZM21.2049 12.9586C20.6949 12.9586 20.2449 12.8386 19.8649 12.6086C19.4749 12.3786 19.1849 12.0486 18.9749 11.6386C18.7649 11.2286 18.6549 10.7586 18.6549 10.2186C18.6549 9.68859 18.7649 9.21859 18.9749 8.80859C19.1849 8.39859 19.4749 8.06859 19.8649 7.83859C20.2449 7.60859 20.6949 7.48859 21.2049 7.48859C21.6349 7.48859 22.0049 7.56859 22.3249 7.73859C22.6349 7.90859 22.8949 8.12859 23.0849 8.40859C23.2749 8.68859 23.3949 8.99859 23.4449 9.34859H22.1449C22.1049 9.13859 22.0049 8.95859 21.8549 8.81859C21.6949 8.68859 21.4749 8.61859 21.1849 8.61859C20.8149 8.61859 20.5249 8.75859 20.2949 9.04859C20.0649 9.33859 19.9549 9.72859 19.9549 10.2186C19.9549 10.7086 20.0649 11.0986 20.2949 11.3886C20.5249 11.6786 20.8149 11.8286 21.1849 11.8286C21.4749 11.8286 21.6949 11.7686 21.8649 11.6386C22.0249 11.5086 22.1249 11.3386 22.1649 11.1286H23.4449C23.3949 11.4786 23.2749 11.7886 23.0849 12.0586C22.8949 12.3286 22.6349 12.5486 22.3249 12.7086C22.0049 12.8786 21.6349 12.9586 21.2049 12.9586ZM26.6937 12.9586C26.1637 12.9586 25.7037 12.8486 25.3237 12.6186C24.9337 12.3986 24.6437 12.0786 24.4337 11.6686C24.2237 11.2586 24.1237 10.7686 24.1237 10.1986C24.1237 9.68859 24.2237 9.21859 24.4337 8.80859C24.6337 8.39859 24.9237 8.07859 25.3037 7.83859C25.6837 7.60859 26.1337 7.48859 26.6637 7.48859C27.4237 7.48859 28.0037 7.72859 28.4137 8.21859C28.8237 8.70859 29.0237 9.35859 29.0237 10.1686V10.6286H25.4037C25.5137 11.4886 25.9437 11.9186 26.7037 11.9186C26.9537 11.9186 27.1537 11.8786 27.3237 11.7986C27.4837 11.7186 27.5937 11.6186 27.6537 11.4886H28.9337C28.8037 11.9386 28.5437 12.2986 28.1537 12.5586C27.7537 12.8286 27.2637 12.9586 26.6937 12.9586ZM26.6537 8.52859C26.3037 8.52859 26.0237 8.62859 25.8137 8.82859C25.6037 9.03859 25.4637 9.32859 25.4037 9.70859H27.7837C27.7737 9.35859 27.6737 9.06859 27.4837 8.84859C27.2937 8.63859 27.0137 8.52859 26.6537 8.52859ZM31.3382 9.76859V12.8086H30.0682V7.63859H31.2882V8.24859C31.6582 7.73859 32.1782 7.48859 32.8482 7.48859C33.4082 7.48859 33.8482 7.67859 34.1782 8.06859C34.5082 8.45859 34.6682 8.96859 34.6682 9.59859V12.8086H33.3982V9.78859C33.3982 9.43859 33.3182 9.14859 33.1582 8.93859C32.9882 8.72859 32.7382 8.62859 32.4082 8.62859C32.1082 8.62859 31.8582 8.72859 31.6482 8.92859C31.4382 9.13859 31.3382 9.41859 31.3382 9.76859ZM37.9271 12.8486C37.4071 12.8486 37.0071 12.7086 36.7271 12.4186C36.4371 12.1386 36.2971 11.7286 36.2971 11.1786V8.73859H35.4571V7.63859H36.2971V6.06859C36.7371 6.04859 37.1571 5.97859 37.5671 5.85859V7.63859H38.5871V8.73859H37.5671V11.0386C37.5671 11.2686 37.6271 11.4486 37.7371 11.5686C37.8471 11.6886 38.0071 11.7486 38.2171 11.7486H38.5871V12.8486H37.9271ZM39.5897 12.8086V5.55859H40.8597V12.8086H39.5897ZM42.7876 14.8586L43.6376 12.8086L41.6076 7.63859H43.0576L44.3376 11.3286L45.5976 7.63859H46.9676L44.1476 14.8586H42.7876ZM54.8005 12.8086L54.2205 11.2286H51.4105L50.8405 12.8086H49.4505L52.1405 5.84859H53.5505L56.2405 12.8086H54.8005ZM51.8405 10.0486H53.8005L52.8205 7.35859L51.8405 10.0486ZM59.0309 12.9586C58.5809 12.9586 58.1909 12.8386 57.8509 12.6086C57.5009 12.3786 57.2309 12.0486 57.0409 11.6386C56.8409 11.2286 56.7409 10.7586 56.7409 10.2186C56.7409 9.67859 56.8409 9.19859 57.0409 8.78859C57.2309 8.37859 57.5009 8.05859 57.8509 7.82859C58.1909 7.59859 58.5809 7.48859 59.0309 7.48859C59.3609 7.48859 59.6609 7.55859 59.9209 7.68859C60.1809 7.82859 60.4009 8.01859 60.5809 8.26859V5.55859H61.8409V12.8086H60.6209V12.1286C60.4509 12.3886 60.2309 12.5886 59.9609 12.7386C59.6909 12.8886 59.3809 12.9586 59.0309 12.9586ZM59.3309 11.8286C59.7209 11.8286 60.0309 11.6786 60.2809 11.3886C60.5209 11.0986 60.6409 10.7086 60.6409 10.2186C60.6409 9.72859 60.5209 9.33859 60.2809 9.04859C60.0309 8.75859 59.7209 8.61859 59.3309 8.61859C58.9509 8.61859 58.6409 8.75859 58.4009 9.04859C58.1509 9.33859 58.0309 9.72859 58.0309 10.2186C58.0309 10.7086 58.1509 11.0986 58.4009 11.3886C58.6409 11.6786 58.9509 11.8286 59.3309 11.8286ZM65.1539 12.9586C64.7039 12.9586 64.3139 12.8386 63.9739 12.6086C63.6239 12.3786 63.3539 12.0486 63.1639 11.6386C62.9639 11.2286 62.8639 10.7586 62.8639 10.2186C62.8639 9.67859 62.9639 9.19859 63.1639 8.78859C63.3539 8.37859 63.6239 8.05859 63.9739 7.82859C64.3139 7.59859 64.7039 7.48859 65.1539 7.48859C65.4839 7.48859 65.7839 7.55859 66.0439 7.68859C66.3039 7.82859 66.5239 8.01859 66.7039 8.26859V5.55859H67.9639V12.8086H66.7439V12.1286C66.5739 12.3886 66.3539 12.5886 66.0839 12.7386C65.8139 12.8886 65.5039 12.9586 65.1539 12.9586ZM65.4539 11.8286C65.8439 11.8286 66.1539 11.6786 66.4039 11.3886C66.6439 11.0986 66.7639 10.7086 66.7639 10.2186C66.7639 9.72859 66.6439 9.33859 66.4039 9.04859C66.1539 8.75859 65.8439 8.61859 65.4539 8.61859C65.0739 8.61859 64.7639 8.75859 64.5239 9.04859C64.2739 9.33859 64.1539 9.72859 64.1539 10.2186C64.1539 10.7086 64.2739 11.0986 64.5239 11.3886C64.7639 11.6786 65.0739 11.8286 65.4539 11.8286ZM71.557 12.9586C71.027 12.9586 70.567 12.8486 70.187 12.6186C69.797 12.3986 69.507 12.0786 69.297 11.6686C69.087 11.2586 68.987 10.7686 68.987 10.1986C68.987 9.68859 69.087 9.21859 69.297 8.80859C69.497 8.39859 69.787 8.07859 70.167 7.83859C70.547 7.60859 70.997 7.48859 71.527 7.48859C72.287 7.48859 72.867 7.72859 73.277 8.21859C73.687 8.70859 73.887 9.35859 73.887 10.1686V10.6286H70.267C70.377 11.4886 70.807 11.9186 71.567 11.9186C71.817 11.9186 72.017 11.8786 72.187 11.7986C72.347 11.7186 72.457 11.6186 72.517 11.4886H73.797C73.667 11.9386 73.407 12.2986 73.017 12.5586C72.617 12.8286 72.127 12.9586 71.557 12.9586ZM71.517 8.52859C71.167 8.52859 70.887 8.62859 70.677 8.82859C70.467 9.03859 70.327 9.32859 70.267 9.70859H72.647C72.637 9.35859 72.537 9.06859 72.347 8.84859C72.157 8.63859 71.877 8.52859 71.517 8.52859ZM76.9215 12.9586C76.4715 12.9586 76.0815 12.8386 75.7415 12.6086C75.3915 12.3786 75.1215 12.0486 74.9315 11.6386C74.7315 11.2286 74.6315 10.7586 74.6315 10.2186C74.6315 9.67859 74.7315 9.19859 74.9315 8.78859C75.1215 8.37859 75.3915 8.05859 75.7415 7.82859C76.0815 7.59859 76.4715 7.48859 76.9215 7.48859C77.2515 7.48859 77.5515 7.55859 77.8115 7.68859C78.0715 7.82859 78.2915 8.01859 78.4715 8.26859V5.55859H79.7315V12.8086H78.5115V12.1286C78.3415 12.3886 78.1215 12.5886 77.8515 12.7386C77.5815 12.8886 77.2715 12.9586 76.9215 12.9586ZM77.2215 11.8286C77.6115 11.8286 77.9215 11.6786 78.1715 11.3886C78.4115 11.0986 78.5315 10.7086 78.5315 10.2186C78.5315 9.72859 78.4115 9.33859 78.1715 9.04859C77.9215 8.75859 77.6115 8.61859 77.2215 8.61859C76.8415 8.61859 76.5315 8.75859 76.2915 9.04859C76.0415 9.33859 75.9215 9.72859 75.9215 10.2186C75.9215 10.7086 76.0415 11.0986 76.2915 11.3886C76.5315 11.6786 76.8415 11.8286 77.2215 11.8286Z" fill="white"/>
</svg>
