<svg width="76" height="18" viewBox="0 0 76 18" fill="none" xmlns="http://www.w3.org/2000/svg">
<path d="M0 2.80859C0 1.70402 0.895431 0.808594 2 0.808594H74C75.1046 0.808594 76 1.70402 76 2.80859V17.8086H0V2.80859Z" fill="#F50723"/>
<path d="M11.69 11.6186V12.8086H6.79V5.84859H8.15V11.6186H11.69ZM14.9945 12.9586C14.4645 12.9586 14.0045 12.8486 13.6245 12.6186C13.2345 12.3986 12.9445 12.0786 12.7345 11.6686C12.5245 11.2586 12.4245 10.7686 12.4245 10.1986C12.4245 9.68859 12.5245 9.21859 12.7345 8.80859C12.9345 8.39859 13.2245 8.07859 13.6045 7.83859C13.9845 7.60859 14.4345 7.48859 14.9645 7.48859C15.7245 7.48859 16.3045 7.72859 16.7145 8.21859C17.1245 8.70859 17.3245 9.35859 17.3245 10.1686V10.6286H13.7045C13.8145 11.4886 14.2445 11.9186 15.0045 11.9186C15.2545 11.9186 15.4545 11.8786 15.6245 11.7986C15.7845 11.7186 15.8945 11.6186 15.9545 11.4886H17.2345C17.1045 11.9386 16.8445 12.2986 16.4545 12.5586C16.0545 12.8286 15.5645 12.9586 14.9945 12.9586ZM14.9545 8.52859C14.6045 8.52859 14.3245 8.62859 14.1145 8.82859C13.9045 9.03859 13.7645 9.32859 13.7045 9.70859H16.0845C16.0745 9.35859 15.9745 9.06859 15.7845 8.84859C15.5945 8.63859 15.3145 8.52859 14.9545 8.52859ZM19.809 12.9586C19.269 12.9586 18.839 12.8086 18.519 12.5086C18.189 12.2186 18.029 11.8186 18.029 11.3286C18.029 10.7986 18.219 10.3786 18.609 10.0786C18.999 9.77859 19.539 9.62859 20.229 9.62859H21.279V9.43859C21.279 9.11859 21.189 8.88859 21.019 8.73859C20.849 8.59859 20.609 8.52859 20.319 8.52859C20.069 8.52859 19.859 8.57859 19.699 8.67859C19.539 8.77859 19.439 8.89859 19.399 9.02859H18.179C18.269 8.58859 18.499 8.21859 18.879 7.92859C19.259 7.63859 19.749 7.48859 20.359 7.48859C21.029 7.48859 21.559 7.65859 21.949 7.98859C22.339 8.32859 22.529 8.85859 22.529 9.56859V12.8086H21.359V12.1686C21.189 12.4386 20.969 12.6386 20.689 12.7686C20.399 12.8986 20.109 12.9586 19.809 12.9586ZM20.129 11.9386C20.309 11.9386 20.489 11.8986 20.669 11.8186C20.839 11.7386 20.989 11.6186 21.109 11.4586C21.219 11.3086 21.279 11.1086 21.279 10.8686V10.5386H20.289C19.959 10.5386 19.709 10.5986 19.539 10.7186C19.359 10.8486 19.269 11.0186 19.269 11.2486C19.269 11.4786 19.349 11.6486 19.509 11.7586C19.669 11.8786 19.879 11.9386 20.129 11.9386ZM26.3538 12.8086H25.0238L23.0138 7.63859H24.4638L25.7338 11.3586L27.0038 7.63859H28.3738L26.3538 12.8086ZM29.7609 7.03859C29.5509 7.03859 29.3609 6.95859 29.2109 6.80859C29.0509 6.65859 28.9709 6.46859 28.9709 6.24859C28.9709 6.02859 29.0509 5.83859 29.2109 5.68859C29.3609 5.53859 29.5509 5.45859 29.7609 5.45859C29.9709 5.45859 30.1609 5.53859 30.3209 5.68859C30.4709 5.83859 30.5509 6.02859 30.5509 6.24859C30.5509 6.46859 30.4709 6.65859 30.3209 6.80859C30.1609 6.95859 29.9709 7.03859 29.7609 7.03859ZM29.1209 12.8086V7.63859H30.3909V12.8086H29.1209ZM32.9886 9.76859V12.8086H31.7186V7.63859H32.9386V8.24859C33.3086 7.73859 33.8286 7.48859 34.4986 7.48859C35.0586 7.48859 35.4986 7.67859 35.8286 8.06859C36.1586 8.45859 36.3186 8.96859 36.3186 9.59859V12.8086H35.0486V9.78859C35.0486 9.43859 34.9686 9.14859 34.8086 8.93859C34.6386 8.72859 34.3886 8.62859 34.0586 8.62859C33.7586 8.62859 33.5086 8.72859 33.2986 8.92859C33.0886 9.13859 32.9886 9.41859 32.9886 9.76859ZM39.5775 12.7886C39.1275 12.7886 38.7375 12.6786 38.3975 12.4486C38.0475 12.2186 37.7775 11.9086 37.5875 11.5086C37.3975 11.1086 37.2975 10.6486 37.2975 10.1386C37.2975 9.62859 37.3975 9.16859 37.5875 8.76859C37.7775 8.36859 38.0475 8.05859 38.3975 7.82859C38.7375 7.59859 39.1275 7.48859 39.5775 7.48859C39.9275 7.48859 40.2375 7.55859 40.5075 7.70859C40.7775 7.85859 40.9975 8.05859 41.1775 8.30859V7.63859H42.3975V12.6086C42.3975 13.3786 42.1775 13.9686 41.7475 14.3886C41.3075 14.7986 40.7075 15.0086 39.9475 15.0086C39.2975 15.0086 38.7475 14.8586 38.3075 14.5586C37.8675 14.2586 37.5975 13.8786 37.4875 13.4086H38.8075C38.8975 13.5586 39.0275 13.6786 39.2175 13.7686C39.4075 13.8586 39.6375 13.9086 39.9175 13.9086C40.3075 13.9086 40.6075 13.8086 40.8175 13.6186C41.0275 13.4286 41.1375 13.1186 41.1375 12.7086V12.0186C40.9575 12.2586 40.7375 12.4486 40.4775 12.5786C40.2075 12.7186 39.9075 12.7886 39.5775 12.7886ZM39.8775 11.6586C40.2675 11.6586 40.5775 11.5186 40.8275 11.2286C41.0775 10.9486 41.1975 10.5786 41.1975 10.1286C41.1975 9.67859 41.0775 9.30859 40.8275 9.02859C40.5775 8.74859 40.2675 8.60859 39.8775 8.60859C39.5075 8.60859 39.1975 8.74859 38.9575 9.02859C38.7075 9.30859 38.5875 9.67859 38.5875 10.1286C38.5875 10.5786 38.7075 10.9486 38.9575 11.2286C39.1975 11.5186 39.5075 11.6586 39.8775 11.6586ZM48.5764 12.9686C47.7664 12.9686 47.1064 12.7786 46.5964 12.4086C46.0864 12.0386 45.7464 11.5186 45.5964 10.8486H46.9564C47.0464 11.1286 47.2264 11.3486 47.5164 11.5186C47.7964 11.6886 48.1464 11.7786 48.5564 11.7786C48.9464 11.7786 49.2764 11.6986 49.5364 11.5486C49.7864 11.3986 49.9164 11.1886 49.9164 10.8986C49.9164 10.7286 49.8764 10.5886 49.8064 10.4586C49.7364 10.3386 49.5964 10.2286 49.3964 10.1386C49.1964 10.0486 48.9064 9.97859 48.5264 9.91859L47.7464 9.78859C47.0964 9.67859 46.6164 9.47859 46.2964 9.16859C45.9664 8.85859 45.8064 8.41859 45.8064 7.84859C45.8064 7.40859 45.9264 7.02859 46.1664 6.69859C46.3964 6.37859 46.7164 6.12859 47.1264 5.94859C47.5264 5.77859 47.9764 5.68859 48.4764 5.68859C49.2064 5.68859 49.8164 5.85859 50.3064 6.19859C50.7964 6.54859 51.1064 7.04859 51.2164 7.70859H49.8564C49.7864 7.42859 49.6364 7.21859 49.3964 7.07859C49.1564 6.94859 48.8564 6.87859 48.4864 6.87859C48.0764 6.87859 47.7564 6.94859 47.5264 7.09859C47.2964 7.24859 47.1764 7.45859 47.1764 7.72859C47.1764 7.96859 47.2664 8.15859 47.4464 8.28859C47.6164 8.41859 47.9664 8.52859 48.4964 8.61859L49.2464 8.73859C50.6164 8.95859 51.2964 9.63859 51.2964 10.7686C51.2964 11.2386 51.1764 11.6286 50.9464 11.9586C50.7164 12.2886 50.3964 12.5386 49.9864 12.7086C49.5764 12.8886 49.1064 12.9686 48.5764 12.9686ZM54.6531 12.9586C54.1431 12.9586 53.7031 12.8386 53.3131 12.6086C52.9231 12.3786 52.6131 12.0486 52.3931 11.6386C52.1731 11.2286 52.0631 10.7586 52.0631 10.2186C52.0631 9.67859 52.1731 9.19859 52.3931 8.78859C52.6131 8.37859 52.9231 8.05859 53.3131 7.82859C53.7031 7.59859 54.1431 7.48859 54.6531 7.48859C55.1631 7.48859 55.6131 7.59859 56.0031 7.82859C56.3931 8.05859 56.6931 8.37859 56.9131 8.78859C57.1331 9.19859 57.2431 9.67859 57.2431 10.2186C57.2431 10.7586 57.1331 11.2286 56.9131 11.6386C56.6931 12.0486 56.3931 12.3786 56.0031 12.6086C55.6131 12.8386 55.1631 12.9586 54.6531 12.9586ZM54.6531 11.8286C55.0431 11.8286 55.3531 11.6786 55.5931 11.3886C55.8331 11.0986 55.9531 10.7086 55.9531 10.2186C55.9531 9.72859 55.8331 9.33859 55.5931 9.04859C55.3531 8.75859 55.0431 8.61859 54.6531 8.61859C54.2631 8.61859 53.9531 8.75859 53.7131 9.04859C53.4731 9.33859 53.3531 9.72859 53.3531 10.2186C53.3531 10.7086 53.4731 11.0986 53.7131 11.3886C53.9531 11.6786 54.2631 11.8286 54.6531 11.8286ZM60.5516 12.9586C60.0416 12.9586 59.6016 12.8386 59.2116 12.6086C58.8216 12.3786 58.5116 12.0486 58.2916 11.6386C58.0716 11.2286 57.9616 10.7586 57.9616 10.2186C57.9616 9.67859 58.0716 9.19859 58.2916 8.78859C58.5116 8.37859 58.8216 8.05859 59.2116 7.82859C59.6016 7.59859 60.0416 7.48859 60.5516 7.48859C61.0616 7.48859 61.5116 7.59859 61.9016 7.82859C62.2916 8.05859 62.5916 8.37859 62.8116 8.78859C63.0316 9.19859 63.1416 9.67859 63.1416 10.2186C63.1416 10.7586 63.0316 11.2286 62.8116 11.6386C62.5916 12.0486 62.2916 12.3786 61.9016 12.6086C61.5116 12.8386 61.0616 12.9586 60.5516 12.9586ZM60.5516 11.8286C60.9416 11.8286 61.2516 11.6786 61.4916 11.3886C61.7316 11.0986 61.8516 10.7086 61.8516 10.2186C61.8516 9.72859 61.7316 9.33859 61.4916 9.04859C61.2516 8.75859 60.9416 8.61859 60.5516 8.61859C60.1616 8.61859 59.8516 8.75859 59.6116 9.04859C59.3716 9.33859 59.2516 9.72859 59.2516 10.2186C59.2516 10.7086 59.3716 11.0986 59.6116 11.3886C59.8516 11.6786 60.1616 11.8286 60.5516 11.8286ZM65.43 9.76859V12.8086H64.16V7.63859H65.38V8.24859C65.75 7.73859 66.27 7.48859 66.94 7.48859C67.5 7.48859 67.94 7.67859 68.27 8.06859C68.6 8.45859 68.76 8.96859 68.76 9.59859V12.8086H67.49V9.78859C67.49 9.43859 67.41 9.14859 67.25 8.93859C67.08 8.72859 66.83 8.62859 66.5 8.62859C66.2 8.62859 65.95 8.72859 65.74 8.92859C65.53 9.13859 65.43 9.41859 65.43 9.76859Z" fill="white"/>
</svg>
