<svg width="36" height="36" viewBox="0 0 36 36" fill="none" xmlns="http://www.w3.org/2000/svg">
<circle cx="18" cy="18" r="18" fill="#363636"/>
<path fill-rule="evenodd" clip-rule="evenodd" d="M16.7649 9.95687V13.1372C16.7649 13.3518 16.7213 13.569 16.6323 13.7707C15.2196 16.9709 13.136 18.5398 11.1371 18.8969C11.0882 18.9056 11.0485 18.9304 11.0264 18.9544C11.0164 18.9652 11.0128 18.9728 11.0119 18.975L11.0116 24.1118C11.0116 24.1118 11.0134 24.1142 11.0153 24.116C11.0234 24.1235 11.035 24.1283 11.0486 24.1275C12.6857 24.0285 13.7474 24.2038 14.5612 24.4808C14.9617 24.6171 15.2857 24.7726 15.5583 24.9068C15.5822 24.9185 15.6055 24.93 15.6282 24.9412C15.8748 25.0628 16.0587 25.1535 16.2557 25.2233C16.3666 25.2626 16.7011 25.312 17.2836 25.3386C17.8291 25.3636 18.5032 25.3663 19.2226 25.3545C20.6597 25.331 22.2404 25.25 23.2559 25.1825L23.2802 25.1809H23.3046C23.4164 25.1809 23.4863 25.1668 23.5262 25.1541C23.5636 25.1423 23.5766 25.1312 23.5786 25.1295C23.5806 25.1278 23.5861 25.123 23.5946 25.1067C23.6041 25.0884 23.6177 25.0545 23.629 24.998C23.6849 24.7197 23.6243 24.3152 23.5385 23.8377C23.4446 23.3151 23.7093 22.8606 24.061 22.6275C24.6738 22.2214 24.6897 21.7296 24.6358 21.5636C24.536 21.2564 24.5004 20.8005 24.7595 20.3941C25.015 19.9931 25.0077 19.7362 24.9692 19.578C24.9223 19.3852 24.7916 19.1947 24.6055 19.0125C24.1865 18.6023 24.1371 17.9759 24.3815 17.5081C24.4853 17.3095 24.4849 17.1803 24.4698 17.0986C24.4522 17.004 24.399 16.8955 24.2956 16.7796C24.1916 16.663 24.0588 16.5645 23.936 16.4969C23.8782 16.4651 23.8314 16.445 23.8012 16.4343H19.6447V13.7173C19.6447 11.3299 19.094 10.4444 18.641 10.1113C18.1753 9.76877 17.5268 9.78621 16.7649 9.95687ZM19.5205 8.84884C20.5845 9.63123 21.1558 11.1818 21.1558 13.7173V14.8818H23.8559C24.0206 14.8818 24.1741 14.9251 24.2801 14.9618C24.4001 15.0033 24.5256 15.0602 24.6494 15.1283C24.8948 15.2633 25.1712 15.4634 25.4096 15.7306C25.6486 15.9985 25.8709 16.3591 25.9542 16.808C26.0285 17.209 25.9824 17.6303 25.8037 18.0507C26.0519 18.3261 26.3153 18.709 26.4351 19.2013C26.5813 19.802 26.4891 20.4612 26.0892 21.1378C26.3387 22.0075 26.0041 23.0792 25.0675 23.7984C25.1375 24.2098 25.2133 24.7918 25.109 25.3116C25.0402 25.6544 24.8823 26.0355 24.5434 26.3243C24.2095 26.6089 23.7881 26.7289 23.3309 26.7333C22.2979 26.8016 20.7043 26.8829 19.2467 26.9068C18.5134 26.9189 17.8052 26.9165 17.2164 26.8896C16.6646 26.8643 16.1128 26.815 15.7629 26.691C15.4784 26.5901 15.2148 26.4598 14.9822 26.3448C14.9562 26.3319 14.9306 26.3193 14.9055 26.3069C14.6446 26.1785 14.3915 26.0585 14.0861 25.9546C13.4882 25.7511 12.6232 25.5874 11.1375 25.6773C10.2823 25.7291 9.50049 25.0457 9.50049 24.1123V18.9759C9.50049 18.0933 10.1838 17.4913 10.8782 17.3673C12.2745 17.1179 13.9973 15.9776 15.2538 13.1347V9.94884C15.2538 9.25354 15.7103 8.60666 16.4134 8.44665C17.2202 8.26308 18.4745 8.07956 19.5205 8.84884Z" fill="white"/>
</svg>
