<svg width="36" height="36" viewBox="0 0 36 36" fill="none" xmlns="http://www.w3.org/2000/svg">
<circle cx="18" cy="18" r="17" fill="#363636" stroke="white" stroke-width="2"/>
<path fill-rule="evenodd" clip-rule="evenodd" d="M18.2351 26.043V22.8627C18.2351 22.6481 18.2787 22.4309 18.3677 22.2292C19.7804 19.029 21.864 17.4601 23.8629 17.103C23.9118 17.0943 23.9515 17.0695 23.9736 17.0455C23.9836 17.0347 23.9872 17.0271 23.9881 17.0248L23.9884 11.8881C23.9884 11.8881 23.9866 11.8857 23.9847 11.8839C23.9766 11.8764 23.965 11.8716 23.9514 11.8724C22.3143 11.9714 21.2526 11.796 20.4388 11.5191C20.0383 11.3828 19.7143 11.2273 19.4417 11.0931C19.4178 11.0813 19.3945 11.0699 19.3718 11.0587C19.1252 10.937 18.9413 10.8464 18.7443 10.7765C18.6334 10.7372 18.2989 10.6879 17.7164 10.6613C17.1709 10.6363 16.4968 10.6336 15.7774 10.6454C14.3403 10.6689 12.7596 10.7499 11.7441 10.8174L11.7198 10.819H11.6954C11.5836 10.819 11.5137 10.8331 11.4738 10.8457C11.4364 10.8576 11.4234 10.8687 11.4214 10.8704C11.4194 10.8721 11.4139 10.8769 11.4054 10.8931C11.3959 10.9115 11.3823 10.9454 11.371 11.0019C11.3151 11.2801 11.3757 11.6847 11.4615 12.1622C11.5554 12.6848 11.2907 13.1393 10.939 13.3724C10.3262 13.7785 10.3103 14.2703 10.3642 14.4363C10.464 14.7435 10.4996 15.1994 10.2405 15.6058C9.98495 16.0068 9.99231 16.2637 10.0308 16.4219C10.0777 16.6146 10.2084 16.8052 10.3945 16.9874C10.8135 17.3976 10.8629 18.024 10.6185 18.4918C10.5147 18.6904 10.5151 18.8196 10.5302 18.9012C10.5478 18.9959 10.601 19.1044 10.7044 19.2203C10.8084 19.3369 10.9412 19.4354 11.064 19.5029C11.1218 19.5347 11.1686 19.5548 11.1988 19.5656H15.3553L15.3553 22.2826C15.3553 24.67 15.906 25.5555 16.359 25.8886C16.8247 26.2311 17.4732 26.2137 18.2351 26.043ZM15.4795 27.151C14.4155 26.3686 13.8442 24.8181 13.8442 22.2826V21.1181H11.1441C10.9794 21.1181 10.8259 21.0748 10.7199 21.0381C10.5999 20.9965 10.4744 20.9397 10.3506 20.8716C10.1052 20.7365 9.8288 20.5365 9.5904 20.2693C9.35141 20.0014 9.12911 19.6408 9.04585 19.1918C8.97149 18.7909 9.01764 18.3696 9.19631 17.9492C8.94809 17.6737 8.6847 17.2909 8.56487 16.7986C8.41866 16.1979 8.51094 15.5387 8.91077 14.8621C8.66128 13.9924 8.9959 12.9207 9.93248 12.2015C9.86252 11.7901 9.78667 11.2081 9.89103 10.6882C9.95984 10.3455 10.1177 9.96434 10.4566 9.67553C10.7905 9.39093 11.2119 9.27099 11.6691 9.26659C12.7021 9.19828 14.2957 9.11693 15.7533 9.09303C16.4866 9.08101 17.1948 9.08335 17.7836 9.11029C18.3354 9.13553 18.8872 9.18489 19.2371 9.3089C19.5216 9.40976 19.7852 9.54008 20.0178 9.6551C20.0438 9.66793 20.0694 9.68057 20.0945 9.69296C20.3554 9.82137 20.6085 9.94139 20.9139 10.0453C21.5118 10.2488 22.3768 10.4124 23.8625 10.3226C24.7177 10.2708 25.4995 10.9542 25.4995 11.8876L25.4995 17.024C25.4995 17.9065 24.8162 18.5085 24.1218 18.6326C22.7255 18.882 21.0027 20.0223 19.7462 22.8652V26.051C19.7462 26.7463 19.2897 27.3932 18.5866 27.5532C17.7798 27.7368 16.5255 27.9203 15.4795 27.151Z" fill="white"/>
</svg>
