<svg width="36" height="36" viewBox="0 0 36 36" fill="none" xmlns="http://www.w3.org/2000/svg">
<circle cx="18" cy="18" r="18" fill="#363636"/>
<path fill-rule="evenodd" clip-rule="evenodd" d="M16.7649 9.95699V13.1373C16.7649 13.3519 16.7213 13.5691 16.6323 13.7708C15.2196 16.971 13.136 18.5399 11.1371 18.897C11.0882 18.9057 11.0485 18.9305 11.0264 18.9545C11.0164 18.9653 11.0128 18.9729 11.0119 18.9752L11.0116 24.1119C11.0116 24.1119 11.0134 24.1143 11.0153 24.1161C11.0234 24.1236 11.035 24.1284 11.0486 24.1276C12.6857 24.0286 13.7474 24.204 14.5612 24.4809C14.9617 24.6172 15.2857 24.7727 15.5583 24.9069C15.5822 24.9187 15.6055 24.9301 15.6282 24.9413C15.8748 25.063 16.0587 25.1536 16.2557 25.2235C16.3666 25.2628 16.7011 25.3121 17.2836 25.3387C17.8291 25.3637 18.5032 25.3664 19.2226 25.3546C20.6597 25.3311 22.2404 25.2501 23.2559 25.1826L23.2802 25.181H23.3046C23.4164 25.181 23.4863 25.1669 23.5262 25.1543C23.5636 25.1424 23.5766 25.1313 23.5786 25.1296C23.5806 25.1279 23.5861 25.1231 23.5946 25.1069C23.6041 25.0885 23.6177 25.0546 23.629 24.9981C23.6849 24.7199 23.6243 24.3153 23.5385 23.8378C23.4446 23.3152 23.7093 22.8607 24.061 22.6276C24.6738 22.2215 24.6897 21.7297 24.6358 21.5637C24.536 21.2565 24.5004 20.8006 24.7595 20.3942C25.015 19.9932 25.0077 19.7363 24.9692 19.5781C24.9223 19.3854 24.7916 19.1948 24.6055 19.0126C24.1865 18.6024 24.1371 17.976 24.3815 17.5082C24.4853 17.3096 24.4849 17.1804 24.4698 17.0988C24.4522 17.0041 24.399 16.8956 24.2956 16.7797C24.1916 16.6631 24.0588 16.5646 23.936 16.4971C23.8782 16.4653 23.8314 16.4452 23.8012 16.4344H19.6447V13.7174C19.6447 11.33 19.094 10.4445 18.641 10.1114C18.1753 9.76889 17.5268 9.78634 16.7649 9.95699ZM19.5205 8.84896C20.5845 9.63135 21.1558 11.1819 21.1558 13.7174V14.8819H23.8559C24.0206 14.8819 24.1741 14.9252 24.2801 14.9619C24.4001 15.0035 24.5256 15.0603 24.6494 15.1284C24.8948 15.2635 25.1712 15.4635 25.4096 15.7307C25.6486 15.9986 25.8709 16.3592 25.9542 16.8082C26.0285 17.2091 25.9824 17.6304 25.8037 18.0508C26.0519 18.3263 26.3153 18.7091 26.4351 19.2014C26.5813 19.8021 26.4891 20.4613 26.0892 21.1379C26.3387 22.0076 26.0041 23.0793 25.0675 23.7985C25.1375 24.2099 25.2133 24.7919 25.109 25.3118C25.0402 25.6545 24.8823 26.0357 24.5434 26.3245C24.2095 26.6091 23.7881 26.729 23.3309 26.7334C22.2979 26.8017 20.7043 26.8831 19.2467 26.907C18.5134 26.919 17.8052 26.9166 17.2164 26.8897C16.6646 26.8645 16.1128 26.8151 15.7629 26.6911C15.4784 26.5902 15.2148 26.4599 14.9822 26.3449C14.9562 26.3321 14.9306 26.3194 14.9055 26.307C14.6446 26.1786 14.3915 26.0586 14.0861 25.9547C13.4882 25.7512 12.6232 25.5876 11.1375 25.6774C10.2823 25.7292 9.50049 25.0458 9.50049 24.1124V18.976C9.50049 18.0935 10.1838 17.4915 10.8782 17.3674C12.2745 17.118 13.9973 15.9777 15.2538 13.1348V9.94896C15.2538 9.25366 15.7103 8.60678 16.4134 8.44677C17.2202 8.2632 18.4745 8.07968 19.5205 8.84896Z" fill="white"/>
</svg>
