<svg width="36" height="37" viewBox="0 0 36 37" fill="none" xmlns="http://www.w3.org/2000/svg">
<circle cx="18" cy="18" r="18" fill="#363636"/>
<g filter="url(#filter0_d_109_10986)">
<path fill-rule="evenodd" clip-rule="evenodd" d="M13.7649 11.9575V15.1378C13.7649 15.3524 13.7213 15.5696 13.6323 15.7713C12.2196 18.9715 10.136 20.5404 8.13708 20.8975C8.0882 20.9062 8.0485 20.931 8.02642 20.955C8.01644 20.9658 8.01281 20.9734 8.01189 20.9756L8.01159 26.1124C8.01159 26.1124 8.01338 26.1148 8.01533 26.1166C8.02337 26.1241 8.03499 26.1289 8.04863 26.1281C9.68566 26.0291 10.7474 26.2044 11.5612 26.4814C11.9617 26.6177 12.2857 26.7732 12.5583 26.9074C12.5822 26.9191 12.6055 26.9306 12.6282 26.9418C12.8748 27.0634 13.0587 27.1541 13.2557 27.224C13.3666 27.2633 13.7011 27.3126 14.2836 27.3392C14.8291 27.3642 15.5032 27.3669 16.2226 27.3551C17.6597 27.3316 19.2404 27.2506 20.2559 27.1831L20.2802 27.1815H20.3046C20.4164 27.1815 20.4863 27.1674 20.5262 27.1547C20.5636 27.1429 20.5766 27.1318 20.5786 27.1301C20.5806 27.1284 20.5861 27.1236 20.5946 27.1074C20.6041 27.089 20.6177 27.0551 20.629 26.9986C20.6849 26.7204 20.6243 26.3158 20.5385 25.8383C20.4446 25.3157 20.7093 24.8612 21.061 24.6281C21.6738 24.222 21.6897 23.7302 21.6358 23.5642C21.536 23.257 21.5004 22.8011 21.7595 22.3947C22.015 21.9937 22.0077 21.7368 21.9692 21.5786C21.9223 21.3858 21.7916 21.1953 21.6055 21.0131C21.1865 20.6029 21.1371 19.9765 21.3815 19.5087C21.4853 19.3101 21.4849 19.1809 21.4698 19.0992C21.4522 19.0046 21.399 18.8961 21.2956 18.7802C21.1916 18.6636 21.0588 18.5651 20.936 18.4975C20.8782 18.4658 20.8314 18.4457 20.8012 18.4349H16.6447V15.7179C16.6447 13.3305 16.094 12.445 15.641 12.1119C15.1753 11.7694 14.5268 11.7868 13.7649 11.9575ZM16.5205 10.8495C17.5845 11.6318 18.1558 13.1824 18.1558 15.7179V16.8824H20.8559C21.0206 16.8824 21.1741 16.9257 21.2801 16.9624C21.4001 17.0039 21.5256 17.0608 21.6494 17.1289C21.8948 17.2639 22.1712 17.464 22.4096 17.7312C22.6486 17.9991 22.8709 18.3597 22.9542 18.8087C23.0285 19.2096 22.9824 19.6309 22.8037 20.0513C23.0519 20.3268 23.3153 20.7096 23.4351 21.2019C23.5813 21.8026 23.4891 22.4618 23.0892 23.1384C23.3387 24.0081 23.0041 25.0798 22.0675 25.799C22.1375 26.2104 22.2133 26.7924 22.109 27.3122C22.0402 27.655 21.8823 28.0361 21.5434 28.325C21.2095 28.6096 20.7881 28.7295 20.3309 28.7339C19.2979 28.8022 17.7043 28.8836 16.2467 28.9075C15.5134 28.9195 14.8052 28.9171 14.2164 28.8902C13.6646 28.865 13.1128 28.8156 12.7629 28.6916C12.4784 28.5907 12.2148 28.4604 11.9822 28.3454C11.9562 28.3326 11.9306 28.3199 11.9055 28.3075C11.6446 28.1791 11.3915 28.0591 11.0861 27.9552C10.4882 27.7517 9.6232 27.5881 8.13746 27.6779C7.28233 27.7297 6.50049 27.0463 6.50049 26.1129V20.9765C6.50049 20.0939 7.1838 19.492 7.87824 19.3679C9.27448 19.1185 10.9973 17.9782 12.2538 15.1353V11.9495C12.2538 11.2542 12.7103 10.6073 13.4134 10.4473C14.2202 10.2637 15.4745 10.0802 16.5205 10.8495Z" fill="white"/>
</g>
<path fill-rule="evenodd" clip-rule="evenodd" d="M19.7648 5.95748V9.13779C19.7648 9.35238 19.7212 9.56963 19.6322 9.77133C18.2195 12.9715 17.086 14.9756 17.086 14.9756C17.0371 14.9844 17.0225 15.476 17.0004 15.5C17.086 13.5087 18.2537 17 17.0004 16L17.9821 17.5642C17.9821 17.5642 19.6302 16.9982 19.6322 17C19.6402 17.0075 19.2556 17.5 19.2556 17.5C20.8927 17.401 19.6866 17.2231 20.5004 17.5C20.9008 17.6363 21.2278 17.3658 21.5004 17.5C21.5004 17.5 21.4777 18.4888 21.5004 18.5C21.7471 18.6216 22.0496 18.758 22.2466 18.8278C22.3575 18.8671 21.6641 20.4734 22.2466 20.5C22.7921 20.525 21.5031 21.3669 22.2225 21.3551C23.6596 21.3316 25.2403 21.2506 26.2558 21.1831L26.2801 21.1815H26.3046C26.4163 21.1815 26.4862 21.1674 26.5261 21.1547C26.5636 21.1429 26.5766 21.1318 26.5785 21.1301C26.5805 21.1284 26.5861 21.1236 26.5945 21.1074C26.6041 21.089 26.6176 21.0551 26.6289 20.9986C26.6848 20.7204 26.6242 20.3158 26.5384 19.8383C26.4445 19.3157 26.7092 18.8612 27.0609 18.6281C27.6737 18.222 27.6896 17.7302 27.6357 17.5642C27.5359 17.257 27.5003 16.8011 27.7594 16.3947C28.015 15.9937 28.0076 15.7368 27.9691 15.5786C27.9222 15.3858 27.7915 15.1953 27.6054 15.0131C27.1864 14.6029 27.137 13.9765 27.3814 13.5087C27.4852 13.3101 27.4848 13.1809 27.4697 13.0992C27.4521 13.0046 27.3989 12.8961 27.2955 12.7802C27.1915 12.6636 27.0587 12.5651 26.9359 12.4975C26.8782 12.4658 26.8313 12.4457 26.8011 12.4349H22.6446V9.71793C22.6446 7.33052 22.0939 6.44501 21.6409 6.1119C21.1752 5.76938 20.5267 5.78683 19.7648 5.95748ZM22.5205 4.84945C23.5844 5.63184 24.1557 7.18241 24.1557 9.71793V10.8824H26.8558C27.0205 10.8824 27.174 10.9257 27.28 10.9624C27.4 11.0039 27.5255 11.0608 27.6493 11.1289C27.8947 11.2639 28.1711 11.464 28.4095 11.7312C28.6485 11.9991 28.8708 12.3597 28.9541 12.8087C29.0284 13.2096 28.9823 13.6309 28.8036 14.0513C29.0518 14.3268 29.3152 14.7096 29.435 15.2019C29.5812 15.8026 29.489 16.4618 29.0891 17.1384C29.3386 18.0081 29.004 19.0798 28.0674 19.799C28.1374 20.2104 28.2132 20.7924 28.1089 21.3122C28.0401 21.655 27.8822 22.0361 27.5434 22.325C27.2095 22.6096 26.788 22.7295 26.3308 22.7339C25.2978 22.8022 23.7042 22.8836 22.2466 22.9075C21.5133 22.9195 22.8113 21.3821 22.2225 21.3551C21.6706 21.3299 22.3499 21.124 22 21C21.7155 20.8991 22.2326 20.115 22 20H21.5C21.2391 19.8716 22.254 18.3812 21.9486 18.2772C21.3507 18.0737 20.4857 17.9101 19 18C18.1449 18.0517 17.363 17.3684 17.363 16.435L17.086 14.9756C17.086 14.0931 15.806 12.124 16.5004 12C17.8966 11.7506 17.086 12 18.2537 9.13532V5.94945C18.2537 5.25415 18.7102 4.60727 19.4133 4.44726C20.2201 4.26369 21.4744 4.08017 22.5205 4.84945Z" fill="white"/>
<defs>
<filter id="filter0_d_109_10986" x="2" y="10.2861" width="25.5005" height="27.3422" filterUnits="userSpaceOnUse" color-interpolation-filters="sRGB">
<feFlood flood-opacity="0" result="BackgroundImageFix"/>
<feColorMatrix in="SourceAlpha" type="matrix" values="0 0 0 0 0 0 0 0 0 0 0 0 0 0 0 0 0 0 127 0" result="hardAlpha"/>
<feOffset dy="4"/>
<feGaussianBlur stdDeviation="2"/>
<feComposite in2="hardAlpha" operator="out"/>
<feColorMatrix type="matrix" values="0 0 0 0 0 0 0 0 0 0 0 0 0 0 0 0 0 0 0.25 0"/>
<feBlend mode="normal" in2="BackgroundImageFix" result="effect1_dropShadow_109_10986"/>
<feBlend mode="normal" in="SourceGraphic" in2="effect1_dropShadow_109_10986" result="shape"/>
</filter>
</defs>
</svg>
